# Blender v3.0.1 OBJ File: 'simple_car.blend'
# www.blender.org
mtllib simple_car.mtl
o Cube
v 1.000000 0.770711 -1.000000
v 1.000000 -0.742017 -1.000000
v 1.000000 0.770711 1.000000
v 1.000000 -0.742017 1.000000
v -1.000000 0.770711 -1.000000
v -1.000000 -0.742017 -1.000000
v -1.000000 0.770711 1.000000
v -1.000000 -0.742017 1.000000
v 2.520779 0.096375 -1.000000
v 2.520779 -0.742017 -1.000000
v 2.520779 0.096375 1.000000
v 2.520779 -0.742017 1.000000
v 3.490714 0.028275 -0.837546
v 3.490714 -0.673917 -0.837546
v 3.490714 0.028275 0.837546
v 3.490714 -0.673917 0.837546
v -1.496040 -0.742017 -1.000000
v -1.496040 -0.742017 1.000000
v -1.496040 0.085886 1.000000
v -1.496040 0.085886 -1.000000
v -1.961228 -0.706360 -0.913864
v -1.961228 -0.706360 0.913864
v -1.961228 0.050230 0.913864
v -1.961228 0.050230 -0.913864
vt 0.875000 0.500000
vt 0.625000 0.750000
vt 0.625000 0.500000
vt 0.375000 1.000000
vt 0.375000 0.750000
vt 0.625000 1.000000
vt 0.375000 1.000000
vt 0.375000 0.500000
vt 0.125000 0.750000
vt 0.125000 0.500000
vt 0.625000 0.750000
vt 0.625000 0.250000
vt 0.375000 0.250000
vt 0.625000 0.500000
vt 0.625000 0.500000
vt 0.375000 0.500000
vt 0.375000 0.750000
vt 0.375000 0.750000
vt 0.375000 0.500000
vt 0.625000 0.750000
vt 0.375000 0.250000
vt 0.625000 0.250000
vt 0.625000 0.250000
vt 0.125000 0.500000
vt 0.875000 0.750000
vt 0.875000 0.750000
vt 0.625000 0.000000
vt 0.375000 0.250000
vt 0.375000 0.000000
vt 0.125000 0.750000
vt 0.125000 0.500000
vt 0.875000 0.500000
vt 0.875000 0.750000
vt 0.375000 1.000000
vt 0.625000 1.000000
vt 0.125000 0.750000
vt 0.875000 0.500000
vt 0.625000 1.000000
vn 0.0000 1.0000 0.0000
vn 0.0000 0.0000 1.0000
vn 0.0000 -1.0000 0.0000
vn 0.0000 0.0000 -1.0000
vn 0.0700 0.9975 0.0000
vn 0.4054 0.9142 0.0000
vn 1.0000 0.0000 0.0000
vn 0.1652 0.0000 -0.9863
vn 0.0700 -0.9975 0.0000
vn 0.1652 0.0000 0.9863
vn -0.1821 0.0000 -0.9833
vn -0.8099 0.5866 0.0000
vn -1.0000 0.0000 0.0000
vn -0.0764 -0.9971 0.0000
vn -0.0764 0.9971 0.0000
vn -0.1821 0.0000 0.9833
usemtl Material
s off
f 5/1/1 3/2/1 1/3/1
f 3/2/2 8/4/2 4/5/2
f 8/4/2 19/6/2 18/7/2
f 2/8/3 8/9/3 6/10/3
f 4/5/2 11/11/2 3/2/2
f 5/12/4 2/8/4 6/13/4
f 11/11/5 13/14/5 9/15/5
f 2/8/4 9/15/4 10/16/4
f 2/8/3 12/17/3 4/5/3
f 3/2/6 9/15/6 1/3/6
f 13/14/7 16/18/7 14/19/7
f 9/15/8 14/19/8 10/16/8
f 10/16/9 16/18/9 12/17/9
f 12/17/10 15/20/10 11/11/10
f 17/21/11 24/22/11 20/23/11
f 8/9/3 17/24/3 6/10/3
f 5/1/12 19/25/12 7/26/12
f 6/13/4 20/23/4 5/12/4
f 23/27/13 21/28/13 22/29/13
f 18/30/14 21/31/14 17/24/14
f 20/32/15 23/33/15 19/25/15
f 19/6/16 22/34/16 18/7/16
f 5/1/1 7/26/1 3/2/1
f 3/2/2 7/35/2 8/4/2
f 8/4/2 7/35/2 19/6/2
f 2/8/3 4/5/3 8/9/3
f 4/5/2 12/17/2 11/11/2
f 5/12/4 1/3/4 2/8/4
f 11/11/5 15/20/5 13/14/5
f 2/8/4 1/3/4 9/15/4
f 2/8/3 10/16/3 12/17/3
f 3/2/6 11/11/6 9/15/6
f 13/14/7 15/20/7 16/18/7
f 9/15/8 13/14/8 14/19/8
f 10/16/9 14/19/9 16/18/9
f 12/17/10 16/18/10 15/20/10
f 17/21/11 21/28/11 24/22/11
f 8/9/3 18/30/3 17/24/3
f 5/1/12 20/32/12 19/25/12
f 6/13/4 17/21/4 20/23/4
f 23/27/13 24/22/13 21/28/13
f 18/30/14 22/36/14 21/31/14
f 20/32/15 24/37/15 23/33/15
f 19/6/16 23/38/16 22/34/16
